<svg width="14" height="8" viewBox="0 0 14 8" fill="none" xmlns="http://www.w3.org/2000/svg">
<path d="M1.45784 0.515389C1.39419 0.455244 1.31932 0.408224 1.2375 0.377014C1.15568 0.345804 1.06852 0.331014 0.980984 0.33349C0.893449 0.335967 0.807259 0.35566 0.727336 0.391446C0.647412 0.427231 0.575319 0.478409 0.515174 0.542056C0.455028 0.605703 0.408008 0.680574 0.376798 0.762394C0.345587 0.844213 0.330798 0.931378 0.333274 1.01891C0.33575 1.10645 0.355444 1.19264 0.391229 1.27256C0.427015 1.35249 0.478193 1.42458 0.54184 1.48472L6.54184 7.15139C6.66562 7.26841 6.8295 7.33362 6.99984 7.33362C7.17018 7.33362 7.33406 7.26841 7.45784 7.15139L13.4585 1.48472C13.5235 1.42497 13.5761 1.3529 13.613 1.27268C13.65 1.19246 13.6706 1.1057 13.6737 1.01744C13.6769 0.929176 13.6624 0.841169 13.6313 0.758531C13.6001 0.675894 13.5528 0.600272 13.4922 0.536058C13.4316 0.471844 13.3588 0.420319 13.2781 0.384474C13.1973 0.34863 13.1103 0.329182 13.022 0.327259C12.9337 0.325336 12.8459 0.340977 12.7637 0.373272C12.6815 0.405569 12.6065 0.453876 12.5432 0.515389L6.99984 5.75006L1.45784 0.515389Z" fill="white"/>
</svg>
